<svg width="45" height="43" viewBox="0 0 45 43" fill="none" xmlns="http://www.w3.org/2000/svg">
<path fill-rule="evenodd" clip-rule="evenodd" d="M14.0203 23.9604L13.783 23.4678C13.3413 22.5511 13.0933 21.5228 13.0933 20.4337C13.0933 16.5677 16.2273 13.4337 20.0933 13.4337C23.9593 13.4337 27.0933 16.5677 27.0933 20.4337C27.0933 24.2997 23.9593 27.4337 20.0933 27.4337C18.9885 27.4337 17.9462 27.1785 17.0195 26.7248L16.7517 26.5936L16.4558 26.6306L12.0371 27.1829L13.7337 24.426L14.0203 23.9604ZM10.7651 27.342L10.0933 28.4337L11.3653 28.2747L16.5798 27.6229C17.6404 28.1422 18.8328 28.4337 20.0933 28.4337C24.5115 28.4337 28.0933 24.852 28.0933 20.4337C28.0933 16.0154 24.5115 12.4337 20.0933 12.4337C15.675 12.4337 12.0933 16.0154 12.0933 20.4337C12.0933 21.6763 12.3766 22.8527 12.8821 23.9019L10.7651 27.342Z" fill="black" fill-opacity="0.8"/>
</svg>
