<svg width="46" height="43" viewBox="0 0 46 43" fill="none" xmlns="http://www.w3.org/2000/svg">
<path fill-rule="evenodd" clip-rule="evenodd" d="M24.7466 18.9337C24.7466 21.9713 22.2841 24.4337 19.2466 24.4337C16.209 24.4337 13.7466 21.9713 13.7466 18.9337C13.7466 15.8961 16.209 13.4337 19.2466 13.4337C22.2841 13.4337 24.7466 15.8961 24.7466 18.9337ZM23.4757 23.8699C22.3389 24.8448 20.8615 25.4337 19.2466 25.4337C15.6567 25.4337 12.7466 22.5236 12.7466 18.9337C12.7466 15.3439 15.6567 12.4337 19.2466 12.4337C22.8364 12.4337 25.7466 15.3439 25.7466 18.9337C25.7466 20.5487 25.1576 22.0261 24.1828 23.1628L28.6001 27.5802L27.893 28.2873L23.4757 23.8699Z" fill="black" fill-opacity="0.8"/>
</svg>
